<svg id="Layer_2" data-name="Layer 2" xmlns="http://www.w3.org/2000/svg" viewBox="0 0 1616.5 744.66"><defs><style>.cls-1{stroke:#000;stroke-miterlimit:10;stroke-width:0.5px;}</style></defs><title>Untitled-1</title><path class="cls-1" d="M623.48,1639c-1.58,1.25-5.15,6.89-5.33,7.17-.77,1.22-1.56,2.57-2.34,4.06a59.13,59.13,0,0,0-4.81,12.47l2.85,3c-.79,2-2,5-3.74,8.38-6.75,13.44-14.8,22.06-21.15,28.75a164.9,164.9,0,0,1-22,19.37l2.38,5.58a18.8,18.8,0,0,0-3,6.06c-.7,2.48-.59,4.21-2.08,5.65a6.9,6.9,0,0,1-3.15,1.48c-2.65.8-5.18,2-7.84,2.73-4.2,1.17-12.23,3.47-22.82,6.42A47.83,47.83,0,0,1,543,1763.53c1,1.61,1.85,3.36,3.59,6.87,2,4,6.59,13.51,6,13.81s-4.29-7-11.82-16.84c-1.82-2.38-12.2-16-14.7-14.53-.62.36-.6,1.55-.57,3.45a14.09,14.09,0,0,0,1.91,6.53c1.79,3.41,3,3.89,4.39,6.18,2,3.24,2.12,6.41,2.26,9.74.17,4,.56,13.24-5.47,18.77-3.68,3.38-8,3.77-13.78,4.28-12,1.07-20.69-3.8-26.08-6.8-3.31-1.84-3.35-2.34-3.29-2.5.34-.92,7.75,1.79,17.82,3,9.35,1.07,17.42,2,21.29-2.59,2-2.4,2.25-5.53,2.68-11.76.27-4,.07-9.19-1-9.36-.45-.07-.8.76-2.38,3.21,0,0-.85,1.32-3.21,4.63-.95,1.34-3.06,3.5-16.66,7-4,1-6,1.52-8.11,1.88-6.11,1-14.37,2.38-22.28-1-2.49-1.07-2.68-1.63-6.68-4.19-5.47-3.5-7.36-3.88-24.33-11.32,0,0-8.34-3.66-20.76-10.78-2.65-1.52-3.59-2.2-3.47-2.5.44-1.17,16.79,4,31.63,8.91a20.57,20.57,0,0,0-5.44-6.32,22.29,22.29,0,0,0-9.08-3.92c-5.51-1.34-9.77-4.4-18.27-10.52-15-10.78-24.87-35.3-26.2-38.67l-9.36-8.2v-2.4h5.53c-2.84-4.44-4.92-8-6.33-10.43s-3.18-4.79-4.36-7.4a11.6,11.6,0,0,0-2.32-3.65,10.54,10.54,0,0,0-3.74-2.41c-6.44-2.54-11.68-17.91-11.68-17.91-6.45-19-8.56-44.87-5.71-45.38.48-.08.88.57,3.31,5.05,7.05,13,10.58,19.49,11.52,22,4.55,12,3.91,19.1,7.84,20a4.73,4.73,0,0,0,4.64-1.79c1.26-2-.19-5-.83-6.29,0,0-11.7-24.1-11.17-24.48s8.91,12,10,11.41c.88-.53-3.49-9.92-7.61-17.23A122.42,122.42,0,0,0,362,1605c-4.34-5.91-6.75-7.9-6.06-9,1.16-1.91,9.63,1.11,17.82,4,7,2.5,10.5,3.75,12.24,4.87,1.46.94,2.57,1.83,3.21,1.43,1.81-1.15-2.69-11.18-3.45-12.84a86.33,86.33,0,0,0-7.6-13.18c-6.78-10.16-13.51-20.24-12.95-20.68s11.94,13.06,12.35,12.72-4-5.28-8.67-12.95c-5.76-9.45-6.34-10.53-5.94-10.93.94-1,5.83,2.48,8.85,4.57,6.54,4.52,16.05,10.79,28.69,18.18a27.88,27.88,0,0,1,3.39-2.14c1.88-1,2.41-1,2.67-1.61.79-1.77-2.41-4.92-3.74-6.23-1.9-1.88-2.29-1.63-3.56-3.21a23,23,0,0,1-2.68-4.81c-1.33-2.81-2-4.22-1.78-4.46,1-1.09,7.9,5.09,20.85,12.48,4.8,2.73,6.88,3.61,9.81,6.41,3.8,3.64,5.8,7.44,7,6.95.8-.31.75-2.22.63-4.18a92.68,92.68,0,0,0-2.42-17c-1.84-6.77-2.76-10.16-3.73-12.59-.79-2-1.53-3.57-1.07-3.92.84-.64,5,3.38,7.4,6.15s4.65,5.31,5.88,9.18c.55,1.72.62,2.84.89,8.34.22,4.6.4,8.61.53,11.89l1.49,3.44,1.54-.12v-2l1.07-.47.48-1.31.47-1.07.48-1.07,1.19-1.54h1.54l.95,3.56,1.31.71.71-3.44,1.66-1.9,2.38-2,2.26-1.31,1.19-.36,1.3-22,2.74-1.42,1.3-.48,1.31,1.55,3.09-.48,2.73-1.42,3-1.43,6.06-4.51h1.43l.35,1.18,1.31.84,1.43-.36.47-2.26,1.43-1.78,1.3-2.14,2.26-1.31h3.33l.47,1.79,1.67-.36c2.49-3.58,6.17-8.69,10.93-14.61,9.63-12,12.29-13.15,14.49-13.55,6.46-1.16,12.53,3.62,17.59,7.61s9,7.07,12.35,12.59c1.72,2.8,2.87,5.54,5.35,5.94s3.85-1.83,7.31-3.5c2.62-1.28,4.58-1.35,11.76-1.43,17.76-.21,19.62.06,22.16-1.84,3.27-2.46,2.13-4.37,6.41-7.37,3.53-2.46,6-2.35,8.56-5.46,1-1.19,1-1.71,2.73-5.11.63-1.27,2-3.74,4.75-8.68,6.9-12.39,7.87-13.1,9.86-17.94a70.12,70.12,0,0,0,3-8.91,160.33,160.33,0,0,1,13.19-31.25c10.12-17.94,23.84-28.58,30.78-33.86,9-6.85,6-2.63,26.25-15.56,0,0,10.7-6.83,39.45-17.47a4.2,4.2,0,0,1,3.32-.11c.76.39.85.94,1.55,1.42,1.33.92,3.13.43,3.92.24,6.52-1.61-3.64,3.45,30.18-5.59,4-1.06,3.4-.94,4.39-1.18,18.7-4.65,35.67-1.31,46,.83,9.46,2,16.16,3.34,24.42,7.42,4.56,2.26,6.82,4,11.58,5.17,7.65,1.94,14.13.67,19.61-.53a281.56,281.56,0,0,0,31.9-8.74c28.21-10.2,27.35-13.86,40.46-15.86a55,55,0,0,0,18.17-5.34c4.76-2.43,4.37-3.2,10.52-6.95,12.05-7.36,16.46-6.16,21.12-11.82,2.29-2.77.89-2.63,5.08-12.78,2.54-6.15,5.89-14.14,12.11-22.45a75.91,75.91,0,0,1,8.74-9.81c4.86-4.55,11.26-7.79,24.06-14.25,1.72-.87,3.86-1.92,5.7-1.07,3,1.4,3.38,7.12,3.56,10.16.14,2.23.21,3.38-.35,4.81-1.16,3-3.59,3.47-5.88,5.7-3.5,3.4-5.3,9.44-3.75,11.05,1.77,1.84,7.51-2.43,24.78-11.41,17.48-9.08,19.73-8.94,22.45-13.36,3.14-5.09,7.15-9.74,9.46-15.26.3-.72,1.31-3.25,3.55-4a3,3,0,0,1,2.5,0c2,1.3-.49,6,2,8.38.93.92,1.48.44,2.49,1.42,2.2,2.15,1.42,6.24,1.25,7.13-.65,3.4-2.55,5.87-4.81,8.73s-4.17,4.45-3.74,5.17c.54.94,3.78-1.12,5.88.36,1.78,1.26,1.85,4.44,1.42,6.42-.63,3-2.72,4.89-5.88,7.84s-3.18,2.49-4.1,3.74c-3.41,4.64-.15,8.71-2.67,13.37-1.56,2.87-3.57,2.74-10.87,7a115.25,115.25,0,0,0-11.59,7.84c-9.21,7.14-8.73,11.75-15.83,18.5-3.17,3-9.59,5.87-22.31,11.44-11.76,5.15-17.17,6.94-29.4,12.47-16.12,7.3-18.28,9.43-18,10.34.41,1.34,6-.18,16.39,1.6,3.56.62,2.65.76,7.67,1.79,12.45,2.55,11.53.36,23.17,2a8.1,8.1,0,0,0,5.52-.72,8.3,8.3,0,0,0,3.39-5.34l.71-2.25h6.42l.89,2.32h5.88l24.77-16h9.8l10.34,1.42,15,8.91,5.88-.71,13.37-.25,12.12-1.24a14.84,14.84,0,0,1,5.52,2.13c3.79,2.47,4.32,5.48,6.24,5.71,1.54.18,3.85-1.43,7.31-9l57-4.17,57-4.92H1351l6.06,3.49,49.72,7.31a67.37,67.37,0,0,0,29.94,17.29,69,69,0,0,0,36.36-.65l18,6.76c.13,2.48.25,4.95.38,7.43a40.63,40.63,0,0,0,6.06,3.92,41.07,41.07,0,0,0,8.91,3.46l10.63-1.68,12.12,6.66c.2,1,.39,2.1.59,3.15l3.21,2.38,30.48,20.07,54,41.29q7.06,5.58,14.85,11.17a400.38,400.38,0,0,0,38.26,24.24l34.93,17.83a2.56,2.56,0,0,0,.23,2.24c1.33,1.55,5.49-.69,10.93-1.78a35.4,35.4,0,0,1,10.58-.46q.36,6.95.71,13.9a12.83,12.83,0,0,1,2.5,4.28,13.14,13.14,0,0,1,.53,6.41c5.48.31,13.55.76,23.35,1.25,18.6.93,28,1.39,30.65,1.07,1.75-.21,24.14-3,39.74-11.76a23.51,23.51,0,0,1,10.16-3.39c4.81-.37,7,1.16,13.69,2.86,9.54,2.44,9.51.46,17.56,2.71a61.35,61.35,0,0,1,16,7.25,63.51,63.51,0,0,1,10.57,8.08c3,2.84,4.49,4.26,5.59,6.55,1.42,3,1,4.71.89,13.36-.11,11.58.23,13.11-1.43,15-1,1.1-1.39.91-8.91,4.46-5.34,2.52-4.94,2.53-7,3.38-4.24,1.81-7.2,2.28-15.33,3.75-13.57,2.44-8.29,1.66-13.54,2.49-17.11,2.71-40.07,5.75-49.72,7.13-9.11,1.31-22.54,3.45-39,7a42.82,42.82,0,0,1-13.37,3.56c-3.25.31-5.76.12-10.34,1.07s-4.5,1.66-6.77,1.79c-4.31.24-7.39-2.13-13.72-6.6-9.72-6.86-6.47-4.1-11.94-8.2-12.34-9.24-21.15-17.49-25.66-15.14a10.57,10.57,0,0,1-2.32,1.06,10.82,10.82,0,0,1-9-1.25c-1.23-.88-1.5-1.59-5.23-9.08-2.35-4.73-2.86-5.69-3.92-5.88-2.23-.42-3.06,3.25-7,5.16-6.28,3.1-14.18-1.46-15-2-1.72-1-3.68-3.17-7.6-7.48-4.26-4.68-6.39-7-6.78-8.91a4.67,4.67,0,0,0-1.66-3.07,3.62,3.62,0,0,0-2-.61c-3.43-.11-19.35-7.21-20.79-7.85-21.86-9.71-32.78-14.57-41.47-14.25-6.22.22-15.53,2.27-26.61,11.64-.39-.15-1-.37-1.78-.59-2.33-.67-2.85-.41-3.33-1s-.4-1.92,0-4.4c.31-1.93.57-2.21.3-2.62-.86-1.31-4.21.65-5.76-.83-1.34-1.26.08-3.69-1.43-5.11a3.75,3.75,0,0,0-2.77-.73c-2.42.09-7.15-1.44-17-7.58a67.4,67.4,0,0,1-18.54-6.3c-3.35-1.73-8.21-5.43-17.94-12.83-10.64-8.1-11.87-9.76-12.83-11.41-1.75-3-3.25-7-5.23-6.89-1.1.09-1.32,1.39-3,2.85a11.84,11.84,0,0,1-8.08,2.56c-5.7-.31-9.69-5.25-10.1-5.76-2.51-3.2-2.71-4.76-4.87-5.35-1.94-.53-3.93.36-7.13,1.78-2.53,1.13-3.1,1.84-5.22,2.38a14,14,0,0,1-4.76.35c-6.81-.48-32.18,3.21-32.19,6.54,0,.31.22.88,9.44,3.92,12.74,4.2,12.95,3.34,15.15,5.11,5.44,4.39,5.47,10.76,10.81,11.64a11.8,11.8,0,0,0,2.38,0c6.8,0,12.3,6,14.08,7.84,12.17,12.68,25,14.28,44,34.58,5.45,5.83,12,10.65,17.11,16.75a21.89,21.89,0,0,0,6.59,5.53,22.65,22.65,0,0,0,10.51,2.49c10.33.28,21.48,7.65,38,18.53,13.74,9.08,16.54,13.54,17.83,16.4,2.31,5.14,3.56,8.2,3.56,8.2,2.36,5.77,2.87,7.75,4.81,10.34,1.54,2,2.09,2,6.24,5.52,9.25,8,12.52,13.52,16.57,15.86a4.37,4.37,0,0,1,1.43,1.25c1.17,1.63.93,3.9.36,5.88l5.52,10,109.61,93.39,16.93.53a54.77,54.77,0,0,0,9.26,4.28,55.9,55.9,0,0,0,7.85,2.14,9.37,9.37,0,0,0,3,6.18,9.06,9.06,0,0,0,4.53,2.19q1.07,7.93,2.14,15.86l8.73,1.07,3.39-4.81,11.58,3.39,1.43,6.06,10.16,1.6,10.69,4.28,4.1,15,3.56,1.07,4.28,7.66h5.17l-2,30.66c1.71,1.64,3.61,3.32,5.7,5a83.71,83.71,0,0,0,14.44,9.26l18,10.52,29.58,3.56,27.09,1.78c7.44,2.06,15.47,4,24.06,5.71,9.11,1.81,17.76,3.13,25.84,4.1l11.23,4.63,1.6,18.89-25.48,23,1.24,5.88-8.55,10-16.75,2.32-19.07,7a50.18,50.18,0,0,0-14.44-.53c-7.08.78-8.74,2.58-14.76,2.27-4.32-.23-7.64-1.37-12.33-3a75.88,75.88,0,0,1-10.69-4.63,217.58,217.58,0,0,0-50.61-9.8c-6.62-.48-12.93-.63-18.89-.54l-23.53-3.92-25-7.84a76.87,76.87,0,0,1-19.43-39.56q-12.1-12.75-24.23-25.49l-33.15-26.55c-1-.75-2.19-1.77-2-2.32.42-1,4.86.4,5.17-.36.37-.93-6.33-3.6-14.91-9-5.3-3.34-9.1-6.34-10.46-5.22s.54,5.4-.91,6.32a1.46,1.46,0,0,1-1.35-.09,477.62,477.62,0,0,1-77.88-41,332.51,332.51,0,0,1-121-78.59,20.85,20.85,0,0,1-21.92-2.14c-7.68-6.06-7.68-15.45-7.66-16.57a28.86,28.86,0,0,0-10.7-1c-5.5.53-8,2.47-10.93.95-3.27-1.71-4.58-6.24-4.21-7.07.23-.52.92-4.65,2.31-12.89.44-2.62.75-4.63,1-6.33,1.16-8.15,1.86-12.2,1.86-13.16,0-3.34-1.26-9-9.47-16.27-32.81-10.67-59.3-19.09-77.5-25,0,0-25.15-7.77-40.1-10.87-6.75-1.4-9.09-1.66-17.82-3.56-21.87-4.77-21-6.14-32.08-7.84a142.45,142.45,0,0,0-35.82-.9c-4.21.51-6.49,1.3-11.94,1.43-3.15.08-5.08-.12-7.84.89-3.19,1.17-3.3,2.43-6.24,3.57-2,.79-3.55.79-9.62.53-6.56-.28-9.84-.42-10.87-.53a90,90,0,0,1-16-3.47c-16.8-4.87-25.2-7.31-30.69-10.38-7.69-4.3-7.87-6.2-14.84-9.14-2.93-1.24-5.83-2.15-8-5.12-1.86-2.49-1.67-4.34-3.89-6.29-2-1.78-4.25-2-6.77-2.5-4.5-.81-8.77-2.57-13.19-3.74-14.14-3.74-15.33-9.54-25.66-9.8a62.87,62.87,0,0,0-8.38.89c-4.58.63-7.89,1.32-20,4.1-11.84,2.73-11.92,2.82-15,3.39-3.79.7-5.1.83-13.83,2.23-5.27.85-9.23,1.48-12.37,2-8.94,1.6-16.24,3.58-30.47,7.49-12.12,3.32-13.26,3.91-14.44,4.63-7.7,4.72-5.71,8.29-15.68,16.22-4.32,3.43-7.69,8.13-12.48,10.87-.62.36-2.49,1.39-2.67,3-.21,1.93,2,3.63,2.85,4.28,1.88,1.45,15.87,12.26,23,21.56,3.54,4.63,6.15,8,7.13,13.19.55,2.88.39,5.28,2.14,8.56,1.48,2.77,2.65,3,5.35,6.23,2.15,2.55,2.56,3.75,6.62,11h0s4.72,8.3,5.84,10.06c2,3.1,8,9.66,15.86,9.7,4.57,0,10.24-2.14,12.39-6.49a9.17,9.17,0,0,0,.8-6.77c-.93-4.32-1.88-8.92-.71-14.62s3.12-6.3,3.92-11.76c1.19-8.1-2.34-12.19,0-14.26,2.83-2.5,10.12,1.62,11.05,2.14,1.59.9,5.63,3.45,9.27,9.63,2.26,3.85,1.81,4.91,5.34,16.75,2.37,8,3.66,11.14,4.74,13.22.32.6.66,1.19.66,1.19a38.92,38.92,0,0,0,4.26,6.13c2.9,3,12.18-3.33,22.9-5.69,15.19-3.34,24.61,3.28,29-2.37,1.15-1.49,1-2.66,1.18-8.92a227.48,227.48,0,0,1,2.5-31c1.14-6.76,2.17-12.36,6.77-15.32.5-.33,4-2.53,7.84-1.78,12.36,2.42,15.24,33.51,18.21,33,1.6-.26,1.41-9.35,1.4-9.88-.14-5.7-1.23-7.47-2.14-13.54-1.25-8.3-2-13.56.71-18.18.91-1.52.69-.45,8.91-7.48,5.28-4.52,7.28-6.6,10.34-6.42,1.86.11,1.84.93,5,1.43,3.58.56,4.45-.36,7.13.35a11.37,11.37,0,0,1,5.34,3.21c2.89,3.19,2.12,6.63,3.93,7.13s2.7-2.58,5-2.85c4.09-.5,9.75,8.23,11.4,17.11.64,3.44.94,8.34-2.14,19.24-2.77,9.84-5.39,19.1-11.76,27.81-5.07,6.93-8.17,7.55-33.15,23.16-23,14.37-30.84,20.39-33.5,22.46-8.06,6.26-14.1,11-21,18.53s-6.83,9.43-21.39,30.3c-15.22,21.83-20.59,27.3-27.59,28-2.54.26-6.39,0-12.31,1.62-5.07,1.38-5.93,2.58-11.43,4.1a41,41,0,0,1-12.83,1.9c-5.31-.16-5.78-1.22-15-3.2-19.63-4.25-23.84,1.8-32.43-3.57-5.53-3.46-4-6.09-13.55-14.61a20.89,20.89,0,0,0-2.73-6.18c-3.58-5.44-9.21-8.22-16.63-10.46-18.11-5.46-29.59-2.54-41.59-8.67a25.22,25.22,0,0,1-6.8-4.73c-5-5.28-4.81-11.94-22.43-29.13-8-7.84-26.49-24.43-42.06-43.48-7.22-8.85-7.89-16.12-16.75-23.89a69.21,69.21,0,0,0-17.23-10.81,76.94,76.94,0,0,0-19.79-5.63C655.79,1660.73,630.32,1633.51,623.48,1639Z" transform="translate(-351.53 -1254.37)"/></svg>